<svg id="Layer_1" data-name="Layer 1" xmlns="http://www.w3.org/2000/svg" viewBox="0 0 365 60">
	<defs>
		<style>
			.cls-1{fill:#0063ff;}.cls-2{fill:#fff;}
		</style>
	</defs>
	<path class="cls-1" d="M0,12A12,12,0,0,1,12,0H353a12,12,0,0,1,12,12V48a12,12,0,0,1-12,12H12A12,12,0,0,1,0,48Z" />
	<path class="cls-2" d="M151.05,23.2a7.58,7.58,0,0,1,3.16.62,6.16,6.16,0,0,1,2.32,1.84L155,27.44a5.19,5.19,0,0,0-1.8-1.52,4.8,4.8,0,0,0-2.24-.5,2.92,2.92,0,0,0-1.86.48,1.41,1.41,0,0,0-.58,1.12,1.24,1.24,0,0,0,.4.92,3.56,3.56,0,0,0,1.46.6l2.46.56a5.5,5.5,0,0,1,2.8,1.32,3,3,0,0,1,.86,2.24,3.67,3.67,0,0,1-.68,2.24,4.28,4.28,0,0,1-1.9,1.42,7.57,7.57,0,0,1-2.8.48,8.57,8.57,0,0,1-3.62-.72A6.57,6.57,0,0,1,145,34.22l1.56-1.86a5.52,5.52,0,0,0,1.86,1.6,5.76,5.76,0,0,0,2.66.62,3.6,3.6,0,0,0,1.88-.4,1.32,1.32,0,0,0,.66-1.18,1.24,1.24,0,0,0-.36-.88,2.35,2.35,0,0,0-1.28-.58l-2.68-.6a5.88,5.88,0,0,1-2.72-1.24,3,3,0,0,1-1-2.34,3.73,3.73,0,0,1,.64-2.12,4.28,4.28,0,0,1,1.84-1.48A7,7,0,0,1,151.05,23.2Zm18.84.2v8a5.3,5.3,0,0,1-1.45,4.06,7.24,7.24,0,0,1-8.39,0,5.29,5.29,0,0,1-1.44-4.06v-8h2.75v7.88a3.63,3.63,0,0,0,.71,2.46,2.79,2.79,0,0,0,2.18.8,2.74,2.74,0,0,0,2.16-.8,3.69,3.69,0,0,0,.7-2.46V23.4Zm2.94,13.2V23.4h5.78a5.44,5.44,0,0,1,3.53.94A3.22,3.22,0,0,1,183.28,27a3,3,0,0,1-.64,1.88,2.9,2.9,0,0,1-1.87,1v0a3.35,3.35,0,0,1,2.12,1,3,3,0,0,1,.74,2,3.2,3.2,0,0,1-1.24,2.66,5.72,5.72,0,0,1-3.58,1Zm2.67-7.66h2.75c1.45,0,2.18-.57,2.18-1.7s-.73-1.7-2.18-1.7H175.5Zm0,5.58h3.07a2.59,2.59,0,0,0,1.64-.44,1.6,1.6,0,0,0,.56-1.3,1.51,1.51,0,0,0-.56-1.26,2.47,2.47,0,0,0-1.64-.46H175.5ZM200.38,23.4V36.6H197.9V29.72l.12-3.86h0L194.32,36.6h-2.26l-3.64-10.74h0l.14,3.86V36.6H186V23.4h4l2.38,7.2.84,3h0l.86-3,2.36-7.22Zm6,0V36.6h-2.75V23.4Zm13.64,0v2.22h-4.42v11h-2.76v-11h-4.44V23.4Z" />
</svg>
