<svg id="Layer_1" data-name="Layer 1" xmlns="http://www.w3.org/2000/svg" viewBox="0 0 52 24">
	<defs>
		<style>
			.cls-1{fill:#0063ff;}.cls-2{fill:none;stroke:#0063ff;stroke-width:2px;}
		</style>
	</defs>
	<path class="cls-1" d="M23.42,9l-2.1,3.72V15H20.07V12.75L18,9h1.32l1,1.77.45.94.45-.94,1-1.77Zm.52,6V9H28.4v1H25.18v1.5h2.53v1H25.18V14h3.34v1Zm7.63-6A3.31,3.31,0,0,1,33,9.22a2.77,2.77,0,0,1,1,.83l-.69.8a2.57,2.57,0,0,0-.81-.69,2.15,2.15,0,0,0-1-.22,1.26,1.26,0,0,0-.84.22.61.61,0,0,0-.26.5.52.52,0,0,0,.18.41,1.59,1.59,0,0,0,.66.27l1.11.25a2.59,2.59,0,0,1,1.26.6,1.42,1.42,0,0,1,.38,1,1.68,1.68,0,0,1-.3,1,2,2,0,0,1-.86.64,3.19,3.19,0,0,1-1.26.22A4,4,0,0,1,30,14.74a3,3,0,0,1-1.1-.84l.7-.84a2.43,2.43,0,0,0,.84.72,2.48,2.48,0,0,0,1.19.28,1.67,1.67,0,0,0,.85-.18.6.6,0,0,0,.3-.53.56.56,0,0,0-.17-.4,1.11,1.11,0,0,0-.57-.26l-1.21-.27a2.71,2.71,0,0,1-1.22-.55,1.36,1.36,0,0,1-.43-1.06,1.62,1.62,0,0,1,.28-1,2,2,0,0,1,.83-.67,3.27,3.27,0,0,1,1.28-.2Z" />
	<path class="cls-2" d="M5,1H47a4,4,0,0,1,4,4V19a4,4,0,0,1-4,4H5a4,4,0,0,1-4-4V5A4,4,0,0,1,5,1Z" />
</svg>
