<svg id="Layer_1" data-name="Layer 1" xmlns="http://www.w3.org/2000/svg" viewBox="0 0 52 24"><defs><style>.cls-1{fill:#0063ff;}.cls-2{fill:#fff;}</style></defs><path class="cls-1" d="M0,5A5,5,0,0,1,5,0H47a5,5,0,0,1,5,5V19a5,5,0,0,1-5,5H5a5,5,0,0,1-5-5Z" transform="translate(0 0)"/><path class="cls-2" d="M23.42,9l-2.1,3.72V15H20.07V12.75L18,9h1.32l1,1.77.45.94.45-.94,1-1.77ZM23.94,15V9H28.4v1H25.18V11.5h2.53v1H25.18V14h3.34v1Zm7.63-6A3.33,3.33,0,0,1,33,9.22a2.78,2.78,0,0,1,1,.83l-.69.8a2.58,2.58,0,0,0-.81-.69,2.18,2.18,0,0,0-1-.22,1.3,1.3,0,0,0-.84.22.61.61,0,0,0-.26.5.54.54,0,0,0,.18.41,1.59,1.59,0,0,0,.66.27l1.11.25a2.56,2.56,0,0,1,1.26.6,1.39,1.39,0,0,1,.38,1,1.67,1.67,0,0,1-.3,1,2,2,0,0,1-.86.64,3.26,3.26,0,0,1-1.26.22A4,4,0,0,1,30,14.74a3.06,3.06,0,0,1-1.1-.84l.7-.84a2.3,2.3,0,0,0,.84.72,2.49,2.49,0,0,0,1.19.28,1.65,1.65,0,0,0,.85-.18.6.6,0,0,0,.3-.53.58.58,0,0,0-.17-.4,1.08,1.08,0,0,0-.57-.26l-1.21-.27a2.66,2.66,0,0,1-1.22-.55,1.34,1.34,0,0,1-.43-1.06,1.66,1.66,0,0,1,.28-1,2,2,0,0,1,.83-.67A3.14,3.14,0,0,1,31.57,8.94Z" transform="translate(0 0)"/></svg>