<svg xmlns="http://www.w3.org/2000/svg" id="Layer_1" data-name="Layer 1" viewBox="0 0 254.4 36">
	<defs>
		<style>
			.cls-1{fill:red;fill-opacity:0.88;}.cls-2{fill:#fff;}
		</style>
	</defs>
	<path class="cls-1" d="M18.8,110H237.2a18,18,0,0,1,18,18h0a18,18,0,0,1-18,18H18.8a18,18,0,0,1-18-18h0A18,18,0,0,1,18.8,110Z" transform="translate(-0.8 -110)"/>
	<path class="cls-2" d="M95.06,123.7a3.76,3.76,0,0,1,2.57.82,2.79,2.79,0,0,1,.93,2.24,2.82,2.82,0,0,1-.93,2.26,3.81,3.81,0,0,1-2.57.81h-2v3.37h-2v-9.5Zm-.3,4.56c1.19,0,1.79-.5,1.79-1.5s-.6-1.49-1.79-1.49h-1.7v3Zm12.82,4.94h-2l-.8-2.32h-3.64l-.79,2.32h-2l3.47-9.5h2.37Zm-6-3.79h2.75l-1.39-4.14Zm13.6-5.71-3.37,5.94v3.56h-2v-3.56l-3.37-5.94h2.12l1.53,2.83.72,1.5.73-1.5L113,123.7Zm13.07,0v9.5h-2.27l-3.33-5.59-.82-1.55h0l0,1.64v5.5h-1.78v-9.5h2.26l3.33,5.57.82,1.57h0l-.06-1.64v-5.5Zm6.4-.15a4.81,4.81,0,0,1,2.43.59,4,4,0,0,1,1.57,1.69,6.41,6.41,0,0,1,0,5.24,3.93,3.93,0,0,1-1.57,1.68,4.71,4.71,0,0,1-2.43.59,4.78,4.78,0,0,1-2.45-.59,4,4,0,0,1-1.59-1.68,6.63,6.63,0,0,1,0-5.24,4.12,4.12,0,0,1,1.59-1.69A4.88,4.88,0,0,1,134.61,123.55Zm0,1.63a2.25,2.25,0,0,0-1.88.85,3.9,3.9,0,0,0-.64,2.42,4,4,0,0,0,.64,2.43,2.27,2.27,0,0,0,1.88.84,2.19,2.19,0,0,0,1.84-.84,3.88,3.88,0,0,0,.66-2.43,3.83,3.83,0,0,0-.66-2.42A2.17,2.17,0,0,0,134.61,125.18Zm8,8-2.76-9.5H142l1.87,7.84,1.91-7.84h1.9l1.93,7.84,1.85-7.84h2l-2.76,9.5h-2.23L147.12,128l-.44-2.25h0L146.2,128l-1.31,5.18Zm15.64-8.37,7,3.17v1.83l-7,3.18v-1.9l5.44-2.17-5.44-2.19Z" transform="translate(-0.8 -110)"/>
</svg>