<svg id="Layer_1" data-name="Layer 1" xmlns="http://www.w3.org/2000/svg" viewBox="0 0 256 36.23"><defs><style>.cls-1{fill:red;fill-opacity:0.88;}.cls-2{fill:#fff;}</style></defs><path class="cls-1" d="M18.11,109.89H237.89A18.11,18.11,0,0,1,256,128h0a18.11,18.11,0,0,1-18.11,18.11H18.11A18.11,18.11,0,0,1,0,128H0A18.11,18.11,0,0,1,18.11,109.89Z" transform="translate(0 -109.89)"/><path class="cls-2" d="M73.13,123.67a3.82,3.82,0,0,1,2.54.78,2.58,2.58,0,0,1,.94,2.1,2.8,2.8,0,0,1-.54,1.76,2.73,2.73,0,0,1-1.47.95l2.58,4H74.93l-2.25-3.66H70.89v3.66h-2v-9.56Zm-.23,4.38c1.11,0,1.67-.47,1.67-1.4s-.56-1.39-1.67-1.39h-2v2.79Zm5.67,5.18v-9.56h7.17v1.61H80.57v2.37h4.07v1.54H80.57v2.43H86v1.61Zm12.78.15A4.62,4.62,0,0,1,89,132.8a4,4,0,0,1-1.54-1.68,6,6,0,0,1-.55-2.65,5.65,5.65,0,0,1,.58-2.64,4,4,0,0,1,1.64-1.71,5,5,0,0,1,2.48-.6,4.83,4.83,0,0,1,2.51.58,4,4,0,0,1,1.52,1.77l-1.86.8a1.92,1.92,0,0,0-.8-1.13,2.59,2.59,0,0,0-3.28.48,3.67,3.67,0,0,0-.71,2.43,3.84,3.84,0,0,0,.68,2.48,2.42,2.42,0,0,0,2,.84,2.74,2.74,0,0,0,1.61-.46,1.68,1.68,0,0,0,.65-1.44v-.22H91.46v-1.46H95.7v5H94.29L94.2,132a2.71,2.71,0,0,1-1.13,1A3.94,3.94,0,0,1,91.35,133.38Zm8.35-9.71v9.56h-2v-9.56Zm5.78-.15a5.44,5.44,0,0,1,2.29.45,4.55,4.55,0,0,1,1.69,1.34l-1.12,1.29a3.92,3.92,0,0,0-1.3-1.11,3.53,3.53,0,0,0-1.63-.36,2.12,2.12,0,0,0-1.35.35,1,1,0,0,0-.42.81.92.92,0,0,0,.29.67,2.61,2.61,0,0,0,1.06.43l1.78.41a4,4,0,0,1,2,1,2.16,2.16,0,0,1,.63,1.62,2.67,2.67,0,0,1-.5,1.62,3,3,0,0,1-1.37,1,5.57,5.57,0,0,1-2,.35,6.28,6.28,0,0,1-2.62-.52,4.81,4.81,0,0,1-1.79-1.35l1.13-1.35a4,4,0,0,0,1.35,1.16,4.13,4.13,0,0,0,1.93.45,2.67,2.67,0,0,0,1.36-.29,1,1,0,0,0,.48-.86.89.89,0,0,0-.26-.63,1.68,1.68,0,0,0-.93-.42l-1.94-.44a4.15,4.15,0,0,1-2-.9,2.13,2.13,0,0,1-.7-1.69A2.69,2.69,0,0,1,102,125a3.12,3.12,0,0,1,1.33-1.07A5,5,0,0,1,105.48,123.52Zm12.94.15v1.61h-3.2v7.95h-2v-7.95H110v-1.61Zm1.44,9.56v-9.56H127v1.61h-5.17v2.37h4.07v1.54h-4.07v2.43h5.38v1.61Zm13.19-9.56a3.82,3.82,0,0,1,2.54.78,2.58,2.58,0,0,1,.94,2.1,2.85,2.85,0,0,1-.53,1.76,2.75,2.75,0,0,1-1.48.95l2.58,4h-2.25l-2.25-3.66h-1.79v3.66h-2v-9.56Zm-.23,4.38c1.11,0,1.67-.47,1.67-1.4s-.56-1.39-1.67-1.39h-2v2.79ZM151,123.67v9.56h-2.29l-3.35-5.62-.83-1.56h0l.06,1.65v5.53h-1.8v-9.56H145l3.35,5.61.83,1.58h0l-.06-1.66v-5.53Zm6.43-.15a4.81,4.81,0,0,1,2.45.6,4,4,0,0,1,1.58,1.69,6.5,6.5,0,0,1,0,5.28,4,4,0,0,1-1.58,1.69,4.81,4.81,0,0,1-2.45.6,4.89,4.89,0,0,1-2.47-.6,4.06,4.06,0,0,1-1.59-1.69,6.61,6.61,0,0,1,0-5.28,4.06,4.06,0,0,1,1.59-1.69A4.89,4.89,0,0,1,157.38,123.52Zm0,1.64a2.27,2.27,0,0,0-1.89.86,3.93,3.93,0,0,0-.65,2.43,4,4,0,0,0,.65,2.45,2.29,2.29,0,0,0,1.89.84,2.2,2.2,0,0,0,1.85-.84,3.88,3.88,0,0,0,.67-2.45,3.8,3.8,0,0,0-.67-2.43A2.19,2.19,0,0,0,157.38,125.16Zm8,8.07-2.78-9.56h2.13l1.89,7.9,1.91-7.9h1.91l1.94,7.9,1.87-7.9h2l-2.78,9.56h-2.24L170,128l-.45-2.26h0l-.45,2.26-1.32,5.21Zm15.74-8.42,7,3.19v1.84l-7,3.2v-1.91l5.48-2.19-5.48-2.2Z" transform="translate(0 -109.89)"/></svg>