<svg id="date_range-black-48dp_2_" data-name="date_range-black-48dp (2)" xmlns="http://www.w3.org/2000/svg" width="32" height="32" viewBox="0 0 32 32">
  <path id="Path_30830" data-name="Path 30830" d="M0,0H32V32H0Z" fill="none"/>
  <path id="Path_30831" data-name="Path 30831" d="M24.333,4.667H23V3.333a1.333,1.333,0,1,0-2.667,0V4.667H9.667V3.333A1.333,1.333,0,0,0,7,3.333V4.667H5.667A2.655,2.655,0,0,0,3.013,7.333L3,26a2.666,2.666,0,0,0,2.667,2.667H24.333A2.675,2.675,0,0,0,27,26V7.333A2.675,2.675,0,0,0,24.333,4.667Zm0,20A1.337,1.337,0,0,1,23,26H7a1.337,1.337,0,0,1-1.333-1.333V11.333H24.333ZM8.333,14H11v2.667H8.333Zm5.333,0h2.667v2.667H13.667ZM19,14h2.667v2.667H19Z" transform="translate(1 0.667)"/>
</svg>
