<svg xmlns="http://www.w3.org/2000/svg" width="75.689" height="43.984" viewBox="0 0 75.689 43.984">
  <g id="Shop_Out" data-name="Shop Out" transform="translate(0.003 0.042)" style="isolation: isolate">
    <g id="Group_11979" data-name="Group 11979" transform="translate(-0.003 -0.042)" style="isolation: isolate">
      <path id="Path_30949" data-name="Path 30949" d="M300.287,351.493a6.1,6.1,0,0,0-3.679-1.045,8.84,8.84,0,0,0-1.788.177,4.743,4.743,0,0,0-1.559.607,3.193,3.193,0,0,0-1.091,1.135,3.53,3.53,0,0,0-.408,1.774,2.25,2.25,0,0,0,.591,1.62,4.342,4.342,0,0,0,1.575,1.015,13.225,13.225,0,0,0,2.233.655c.827.177,1.669.355,2.528.559s1.7.44,2.53.71a8.282,8.282,0,0,1,2.216,1.109,5.271,5.271,0,0,1,1.575,1.756,6.147,6.147,0,0,1-.183,5.614,6.345,6.345,0,0,1-1.983,2,8.609,8.609,0,0,1-2.711,1.121,13.147,13.147,0,0,1-2.984.355,12.66,12.66,0,0,1-3.434-.463,8.47,8.47,0,0,1-2.838-1.376,6.554,6.554,0,0,1-1.948-2.349,7.627,7.627,0,0,1-.71-3.408h2.727a4.708,4.708,0,0,0,1.923,3.968,5.883,5.883,0,0,0,2.013.938,9.239,9.239,0,0,0,2.363.3,10.639,10.639,0,0,0,1.951-.177,5.75,5.75,0,0,0,1.774-.621,3.319,3.319,0,0,0,1.754-3.147,2.709,2.709,0,0,0-.591-1.816,4.339,4.339,0,0,0-1.575-1.137,11.482,11.482,0,0,0-2.226-.71l-2.526-.562q-1.288-.288-2.53-.667a9.184,9.184,0,0,1-2.226-1,4.451,4.451,0,0,1-2.162-4.075,5.74,5.74,0,0,1,.665-2.838,5.819,5.819,0,0,1,1.774-1.969,8.007,8.007,0,0,1,2.514-1.151,11.12,11.12,0,0,1,2.893-.378,11.571,11.571,0,0,1,3.09.394,6.984,6.984,0,0,1,2.5,1.242,5.985,5.985,0,0,1,1.7,2.129,7.609,7.609,0,0,1,.683,3.074h-2.732A4.486,4.486,0,0,0,300.287,351.493Z" transform="translate(-288.217 -348.018)" fill="#0062ff"/>
      <path id="Path_30950" data-name="Path 30950" d="M406.047,351v8.268h.06a3.407,3.407,0,0,1,.848-1.226,4.791,4.791,0,0,1,1.226-.818,6.369,6.369,0,0,1,1.419-.47,7.189,7.189,0,0,1,1.439-.151,6.8,6.8,0,0,1,2.574.424,4.235,4.235,0,0,1,1.666,1.182,4.4,4.4,0,0,1,.887,1.8,9.674,9.674,0,0,1,.257,2.317v10.3h-2.57V362.018a2.933,2.933,0,0,0-3.181-3.156,5.258,5.258,0,0,0-2.043.355,3.838,3.838,0,0,0-1.439,1.031,4.419,4.419,0,0,0-.864,1.559,6.357,6.357,0,0,0-.278,1.965v8.843H403.47V351Z" transform="translate(-383.025 -350.471)" fill="#0062ff"/>
      <path id="Path_30951" data-name="Path 30951" d="M494.079,387.528a7.29,7.29,0,0,1,1.455-2.606,6.873,6.873,0,0,1,2.384-1.742,8.783,8.783,0,0,1,6.563,0,6.918,6.918,0,0,1,2.377,1.742,7.289,7.289,0,0,1,1.455,2.606,10.424,10.424,0,0,1,.484,3.225,10.289,10.289,0,0,1-.484,3.211,7.3,7.3,0,0,1-1.455,2.59,6.7,6.7,0,0,1-2.377,1.726,8.969,8.969,0,0,1-6.563,0,6.66,6.66,0,0,1-2.391-1.726,7.3,7.3,0,0,1-1.455-2.59,10.289,10.289,0,0,1-.484-3.211A10.425,10.425,0,0,1,494.079,387.528Zm2.62,5.754a5.239,5.239,0,0,0,1.041,1.847,4.5,4.5,0,0,0,1.559,1.137,4.75,4.75,0,0,0,3.787,0,4.533,4.533,0,0,0,1.559-1.137,5.27,5.27,0,0,0,1.045-1.847,8.656,8.656,0,0,0,0-5.059,5.477,5.477,0,0,0-1.045-1.863,4.506,4.506,0,0,0-1.559-1.151,4.75,4.75,0,0,0-3.787,0,4.475,4.475,0,0,0-1.559,1.151,5.448,5.448,0,0,0-1.045,1.863,8.656,8.656,0,0,0,0,5.059Z" transform="translate(-457.157 -376.419)" fill="#0062ff"/>
      <path id="Path_30952" data-name="Path 30952" d="M599.5,382.9v2.12h.06a3.859,3.859,0,0,1,2-1.893,7.465,7.465,0,0,1,3.007-.591,7.049,7.049,0,0,1,3.165.667,6.435,6.435,0,0,1,2.24,1.8,7.982,7.982,0,0,1,1.348,2.62,10.694,10.694,0,0,1,.447,3.152,11.054,11.054,0,0,1-.438,3.15,7.413,7.413,0,0,1-1.334,2.59,6.267,6.267,0,0,1-2.235,1.74,7.274,7.274,0,0,1-3.135.635,7.827,7.827,0,0,1-1.288-.121,7.246,7.246,0,0,1-1.408-.394,5.478,5.478,0,0,1-1.318-.741,4.19,4.19,0,0,1-1.045-1.167h-.06v8.057H596.93V382.9Zm9.253,5.558a5.746,5.746,0,0,0-.887-1.863,4.308,4.308,0,0,0-1.513-1.3,4.611,4.611,0,0,0-2.166-.486,4.257,4.257,0,0,0-3.7,1.864,5.609,5.609,0,0,0-.834,1.893,9.192,9.192,0,0,0,.014,4.376,5.524,5.524,0,0,0,.864,1.893,4.4,4.4,0,0,0,1.547,1.318,4.776,4.776,0,0,0,2.272.5,4.393,4.393,0,0,0,2.226-.516,4.121,4.121,0,0,0,1.438-1.362,5.906,5.906,0,0,0,.788-1.939,10.3,10.3,0,0,0,.234-2.235A8.021,8.021,0,0,0,608.756,388.462Z" transform="translate(-542.168 -376.415)" fill="#0062ff"/>
    </g>
    <g id="Group_11980" data-name="Group 11980" transform="translate(33.555 21.312)" style="isolation: isolate">
      <path id="Path_30953" data-name="Path 30953" d="M478.048,475.472A10.719,10.719,0,0,1,480,471.854a9.52,9.52,0,0,1,3.241-2.514,11.3,11.3,0,0,1,9.025,0,9.553,9.553,0,0,1,3.241,2.514,10.748,10.748,0,0,1,1.951,3.619,14.235,14.235,0,0,1,0,8.515,10.743,10.743,0,0,1-1.951,3.621,9.383,9.383,0,0,1-3.241,2.5,11.479,11.479,0,0,1-9.025,0,9.349,9.349,0,0,1-3.241-2.5,10.715,10.715,0,0,1-1.951-3.621A14.232,14.232,0,0,1,478.048,475.472Zm2.648,7.482a8.774,8.774,0,0,0,1.334,2.861,6.8,6.8,0,0,0,2.331,2.045,7.844,7.844,0,0,0,6.785,0,6.807,6.807,0,0,0,2.333-2.045,8.767,8.767,0,0,0,1.332-2.861,12.484,12.484,0,0,0,0-6.452,8.757,8.757,0,0,0-1.332-2.863,6.8,6.8,0,0,0-2.333-2.043,7.827,7.827,0,0,0-6.785,0,6.8,6.8,0,0,0-2.331,2.043A8.763,8.763,0,0,0,480.7,476.5,12.485,12.485,0,0,0,480.7,482.955Z" transform="translate(-477.397 -468.4)" fill="#0062ff"/>
      <path id="Path_30954" data-name="Path 30954" d="M607.46,520.6v-2.483h-.06a5.261,5.261,0,0,1-2.09,2.129,6.26,6.26,0,0,1-3,.681,7.015,7.015,0,0,1-2.576-.41,4.08,4.08,0,0,1-1.666-1.166,4.363,4.363,0,0,1-.887-1.8,9.671,9.671,0,0,1-.264-2.31v-10.3h2.576v10.6a2.931,2.931,0,0,0,3.181,3.154,5.226,5.226,0,0,0,2.043-.364,3.815,3.815,0,0,0,1.439-1.029,4.434,4.434,0,0,0,.864-1.561,6.33,6.33,0,0,0,.287-1.951V504.94h2.574V520.6Z" transform="translate(-575.717 -498.458)" fill="#0062ff"/>
    </g>
    <g id="Group_11981" data-name="Group 11981" transform="translate(67.332 23.1)" style="isolation: isolate">
      <path id="Path_30955" data-name="Path 30955" d="M676.165,483.174v2.272h-3.118v9.723a2.859,2.859,0,0,0,.074.727.756.756,0,0,0,.289.424,1.258,1.258,0,0,0,.591.2,8.625,8.625,0,0,0,.983.044h1.181v2.272H674.2a9.268,9.268,0,0,1-1.712-.137,2.5,2.5,0,0,1-1.151-.5,2.13,2.13,0,0,1-.651-1.029,5.926,5.926,0,0,1-.213-1.756v-9.966H667.81v-2.272h2.661V478.48h2.576v4.694Z" transform="translate(-667.81 -478.48)" fill="#0062ff"/>
    </g>
  </g>
</svg>
