<svg id="Layer_1" data-name="Layer 1" xmlns="http://www.w3.org/2000/svg" viewBox="0 0 426.69 247.89"><g id="Shop_Out" data-name="Shop Out" style="isolation:isolate"><g style="isolation:isolate"><path d="M356.26,367.61q-8.11-5.89-20.74-5.89a49.82,49.82,0,0,0-10.08,1,26.75,26.75,0,0,0-8.79,3.42,18,18,0,0,0-6.15,6.4,19.9,19.9,0,0,0-2.3,10,12.68,12.68,0,0,0,3.33,9.13,24.48,24.48,0,0,0,8.88,5.72A74.5,74.5,0,0,0,333,401.08c4.66,1,9.41,2,14.25,3.15s9.59,2.48,14.26,4A46.73,46.73,0,0,1,374,414.48a29.71,29.71,0,0,1,8.88,9.9q3.33,6,3.33,15,0,9.73-4.36,16.65a35.77,35.77,0,0,1-11.18,11.26,48.53,48.53,0,0,1-15.28,6.32,74.11,74.11,0,0,1-16.82,2A71.38,71.38,0,0,1,319.21,473a47.74,47.74,0,0,1-16-7.76A36.94,36.94,0,0,1,292.23,452a43,43,0,0,1-4-19.21h15.37a26.54,26.54,0,0,0,10.84,22.37,33.16,33.16,0,0,0,11.35,5.29,52.1,52.1,0,0,0,13.32,1.71,60,60,0,0,0,11-1,32.42,32.42,0,0,0,10-3.5A18.71,18.71,0,0,0,370,439.92q0-6.32-3.33-10.24a24.46,24.46,0,0,0-8.88-6.41,64.68,64.68,0,0,0-12.55-4L331,416.1q-7.26-1.62-14.26-3.76a51.75,51.75,0,0,1-12.55-5.63,26.93,26.93,0,0,1-8.87-9Q292,392.11,292,383.74a32.36,32.36,0,0,1,3.75-16,32.8,32.8,0,0,1,10-11.1,45.13,45.13,0,0,1,14.17-6.49,62.71,62.71,0,0,1,16.31-2.13,65.22,65.22,0,0,1,17.42,2.22,39.36,39.36,0,0,1,14.08,7,33.75,33.75,0,0,1,9.56,12,42.9,42.9,0,0,1,3.85,17.33H365.74Q364.38,373.5,356.26,367.61Z" transform="translate(-288.22 -348.06)" fill="#0052cc"/><path d="M418,351v46.61h.34a19.2,19.2,0,0,1,4.78-6.91,27,27,0,0,1,6.91-4.61,35.85,35.85,0,0,1,8-2.65,40.45,40.45,0,0,1,8.11-.85,38.34,38.34,0,0,1,14.51,2.39,23.88,23.88,0,0,1,9.39,6.66,24.79,24.79,0,0,1,5,10.16,54.51,54.51,0,0,1,1.45,13.06v58.05H462V413.11q0-8.19-4.78-13t-13.15-4.79a29.64,29.64,0,0,0-11.52,2,21.64,21.64,0,0,0-8.11,5.81,24.9,24.9,0,0,0-4.87,8.79A35.83,35.83,0,0,0,418,423v49.85H403.47V351Z" transform="translate(-288.22 -348.06)" fill="#0052cc"/><path d="M496.36,410.64a41.1,41.1,0,0,1,8.2-14.69A38.74,38.74,0,0,1,518,386.13a49.51,49.51,0,0,1,37,0,39,39,0,0,1,13.4,9.82,41.1,41.1,0,0,1,8.2,14.69,58.77,58.77,0,0,1,2.73,18.18,58,58,0,0,1-2.73,18.1,41.13,41.13,0,0,1-8.2,14.6,37.76,37.76,0,0,1-13.4,9.73,50.56,50.56,0,0,1-37,0,37.54,37.54,0,0,1-13.48-9.73,41.13,41.13,0,0,1-8.2-14.6,58,58,0,0,1-2.73-18.1A58.77,58.77,0,0,1,496.36,410.64Zm14.77,32.44A29.54,29.54,0,0,0,517,453.49a25.37,25.37,0,0,0,8.79,6.41,26.78,26.78,0,0,0,21.35,0,25.56,25.56,0,0,0,8.79-6.41,29.7,29.7,0,0,0,5.89-10.41,48.8,48.8,0,0,0,0-28.52,30.87,30.87,0,0,0-5.89-10.5,25.4,25.4,0,0,0-8.79-6.49,26.78,26.78,0,0,0-21.35,0,25.22,25.22,0,0,0-8.79,6.49,30.71,30.71,0,0,0-5.89,10.5,48.8,48.8,0,0,0,0,28.52Z" transform="translate(-288.22 -348.06)" fill="#0052cc"/><path d="M611.44,384.6v11.95h.34a21.76,21.76,0,0,1,11.27-10.67A42.07,42.07,0,0,1,640,382.55a39.74,39.74,0,0,1,17.84,3.76,36.28,36.28,0,0,1,12.63,10.15,45,45,0,0,1,7.6,14.77A60.29,60.29,0,0,1,680.59,429a62.33,62.33,0,0,1-2.47,17.76,41.81,41.81,0,0,1-7.52,14.6A35.32,35.32,0,0,1,658,471.17a41,41,0,0,1-17.67,3.58,44.09,44.09,0,0,1-7.26-.68,40.89,40.89,0,0,1-7.94-2.22,30.92,30.92,0,0,1-7.43-4.18,23.61,23.61,0,0,1-5.89-6.58h-.34v45.42H596.93V384.6Zm52.16,31.33a32.38,32.38,0,0,0-5-10.5,24.27,24.27,0,0,0-8.53-7.34,26,26,0,0,0-12.21-2.74,24,24,0,0,0-20.83,10.51,31.62,31.62,0,0,0-4.7,10.67,51.81,51.81,0,0,0,.08,24.67,31.13,31.13,0,0,0,4.87,10.67A24.8,24.8,0,0,0,626,459.3a26.93,26.93,0,0,0,12.81,2.82,24.77,24.77,0,0,0,12.55-2.91,23.24,23.24,0,0,0,8.11-7.68,33.32,33.32,0,0,0,4.44-10.93A58.12,58.12,0,0,0,665.23,428,45.22,45.22,0,0,0,663.6,415.93Z" transform="translate(-288.22 -348.06)" fill="#0052cc"/></g><g style="isolation:isolate"><path d="M481.07,508.27a60.44,60.44,0,0,1,11-20.4,53.66,53.66,0,0,1,18.27-14.17q10.92-5.29,25.44-5.3t25.44,5.3a53.86,53.86,0,0,1,18.27,14.17,60.6,60.6,0,0,1,11,20.4,80.24,80.24,0,0,1,0,48,60.55,60.55,0,0,1-11,20.41,52.89,52.89,0,0,1-18.27,14.08q-10.93,5.21-25.44,5.21t-25.44-5.21a52.7,52.7,0,0,1-18.27-14.08,60.4,60.4,0,0,1-11-20.41,80.24,80.24,0,0,1,0-48ZM496,550.45a49.45,49.45,0,0,0,7.52,16.13,38.33,38.33,0,0,0,13.14,11.53q8,4.35,19.13,4.35t19.12-4.35a38.37,38.37,0,0,0,13.15-11.53,49.43,49.43,0,0,0,7.51-16.13,70.38,70.38,0,0,0,0-36.37,49.38,49.38,0,0,0-7.51-16.14,38.34,38.34,0,0,0-13.15-11.52q-8-4.35-19.12-4.36t-19.13,4.36a38.31,38.31,0,0,0-13.14,11.52A49.4,49.4,0,0,0,496,514.08a70.38,70.38,0,0,0,0,36.37Z" transform="translate(-288.22 -348.06)" fill="#0052cc"/><path d="M656.34,593.22v-14H656a29.66,29.66,0,0,1-11.78,12,35.28,35.28,0,0,1-16.9,3.84,39.53,39.53,0,0,1-14.52-2.31,23,23,0,0,1-9.39-6.57,24.59,24.59,0,0,1-5-10.16A54.49,54.49,0,0,1,596.92,563V504.94h14.52v59.77q0,8.19,4.78,13t13.15,4.78a29.46,29.46,0,0,0,11.52-2.05,21.51,21.51,0,0,0,8.11-5.8,25,25,0,0,0,4.87-8.8,35.72,35.72,0,0,0,1.62-11V504.94H670v88.28Z" transform="translate(-288.22 -348.06)" fill="#0052cc"/></g><g style="isolation:isolate"><path d="M714.91,504.94v12.81H697.33v54.81a16.12,16.12,0,0,0,.42,4.1,4.26,4.26,0,0,0,1.63,2.39,7.1,7.1,0,0,0,3.33,1.11,48.65,48.65,0,0,0,5.54.25h6.66v12.81H703.82a52.26,52.26,0,0,1-9.65-.77,14.09,14.09,0,0,1-6.49-2.82,12,12,0,0,1-3.67-5.8,33.41,33.41,0,0,1-1.2-9.9V517.75h-15V504.94h15V478.48h14.52v26.46Z" transform="translate(-288.22 -348.06)" fill="#0052cc"/></g></g></svg>