<svg xmlns="http://www.w3.org/2000/svg" width="308.892" height="216.228" viewBox="0 0 308.892 216.228">
  <g id="Group_12057" data-name="Group 12057" transform="translate(6572 794)">
    <g id="Group_12054" data-name="Group 12054" transform="translate(-6641.609 -1054.262)" opacity="0.1">
      <rect id="Rectangle_1738" data-name="Rectangle 1738" width="259" height="53" rx="26.5" transform="matrix(0.966, -0.259, 0.259, 0.966, 103.609, 425.296)" fill="#0062ff"/>
      <rect id="Rectangle_1739" data-name="Rectangle 1739" width="259" height="53" rx="26.5" transform="matrix(0.966, -0.259, 0.259, 0.966, 114.609, 368.296)" fill="#0062ff"/>
      <rect id="Rectangle_1740" data-name="Rectangle 1740" width="259" height="53" rx="26.5" transform="matrix(0.966, -0.259, 0.259, 0.966, 69.609, 327.296)" fill="#0062ff"/>
    </g>
    <g id="calendar_1_" data-name="calendar (1)" transform="translate(-6462 -727)">
      <g id="Group_11918" data-name="Group 11918" transform="translate(1.318 1.318)">
        <g id="Group_11915" data-name="Group 11915" transform="translate(0 18.665)">
          <path id="Path_30858" data-name="Path 30858" d="M226.772,428.316h10.275v8.118H226.772Z" transform="translate(-188.228 -373.01)" fill="#c7c2c9"/>
          <path id="Path_30859" data-name="Path 30859" d="M203.787,474.5H187.544a4.746,4.746,0,0,0-4.746,4.746.527.527,0,0,0,.527.527h24.681a.527.527,0,0,0,.527-.527A4.746,4.746,0,0,0,203.787,474.5Z" transform="translate(-151.984 -411.075)" fill="#0062ff"/>
          <path id="Path_30860" data-name="Path 30860" d="M277.477,474.5H272.2a4.746,4.746,0,0,1,4.746,4.746.527.527,0,0,1-.527.527H281.7a.527.527,0,0,0,.527-.527A4.746,4.746,0,0,0,277.477,474.5Z" transform="translate(-225.673 -411.075)" fill="#0055de"/>
          <path id="Path_30861" data-name="Path 30861" d="M89.59,168.99H12.773A5.273,5.273,0,0,1,7.5,163.717v-44.76a5.273,5.273,0,0,1,5.273-5.273H89.59a5.273,5.273,0,0,1,5.273,5.273v44.76A5.273,5.273,0,0,1,89.59,168.99Z" transform="translate(-7.5 -113.684)" fill="#0062ff"/>
          <path id="Path_30862" data-name="Path 30862" d="M449.773,113.684H444.5a5.273,5.273,0,0,1,5.273,5.273v44.76a5.273,5.273,0,0,1-5.273,5.273h5.273a5.273,5.273,0,0,0,5.273-5.273v-44.76A5.273,5.273,0,0,0,449.773,113.684Z" transform="translate(-367.684 -113.684)" fill="#0055de"/>
          <path id="Path_30863" data-name="Path 30863" d="M37.5,187.916v-43.7a.527.527,0,0,1,.527-.527h75.762a.527.527,0,0,1,.527.527v43.705a.527.527,0,0,1-.527.527H38.027A.528.528,0,0,1,37.5,187.916Z" transform="translate(-32.227 -138.411)" fill="#ecf5ff"/>
          <path id="Path_30864" data-name="Path 30864" d="M446.773,143.684H441.5a.527.527,0,0,1,.527.527v43.705a.527.527,0,0,1-.527.527h5.273a.527.527,0,0,0,.527-.527V144.211A.527.527,0,0,0,446.773,143.684Z" transform="translate(-365.211 -138.411)" fill="#dceafc"/>
        </g>
        <path id="Path_30865" data-name="Path 30865" d="M170.188,76.2H123.664V12.773A5.273,5.273,0,0,1,128.937,7.5h35.978a5.273,5.273,0,0,1,5.273,5.273Z" transform="translate(-103.245 -7.5)" fill="#f7f6f7"/>
        <path id="Path_30866" data-name="Path 30866" d="M333.609,7.5h-5.273a5.273,5.273,0,0,1,5.273,5.273V76.2h5.273V12.773A5.273,5.273,0,0,0,333.609,7.5Z" transform="translate(-271.939 -7.5)" fill="#e2dfe3"/>
        <g id="Group_11917" data-name="Group 11917" transform="translate(28.125 7.91)">
          <circle id="Ellipse_79" data-name="Ellipse 79" cx="15.557" cy="15.557" r="15.557" transform="translate(0 0)" fill="#0062ff"/>
          <path id="Path_30867" data-name="Path 30867" d="M243.637,52.5a15.6,15.6,0,0,0-2.637.224,15.557,15.557,0,0,1,0,30.664A15.557,15.557,0,1,0,243.637,52.5Z" transform="translate(-228.08 -52.5)" fill="#0055de"/>
          <g id="Group_11916" data-name="Group 11916" transform="translate(6.721 8.693)">
            <path id="Path_30868" data-name="Path 30868" d="M211.916,115.7a3.5,3.5,0,0,1-2.486-1.028l-2.921-2.921a2.637,2.637,0,1,1,3.729-3.729l1.3,1.3a.527.527,0,0,0,.746,0l6.565-6.565a2.686,2.686,0,0,1,3.689-.141,2.637,2.637,0,0,1,.092,3.817l-8.234,8.234A3.5,3.5,0,0,1,211.916,115.7Z" transform="translate(-205.737 -101.952)" fill="#fff"/>
          </g>
        </g>
      </g>
      <path id="Path_30869" data-name="Path 30869" d="M88.682,54.6A1.318,1.318,0,0,0,90,53.279V25.256a6.6,6.6,0,0,0-6.592-6.592H69.581V6.592A6.6,6.6,0,0,0,62.989,0H27.011a6.6,6.6,0,0,0-6.592,6.592V18.664H6.592A6.6,6.6,0,0,0,0,25.256V70.017a6.6,6.6,0,0,0,6.592,6.592H38.544V82.09H36.878a6.071,6.071,0,0,0-6.064,6.064A1.848,1.848,0,0,0,32.66,90H57.34a1.848,1.848,0,0,0,1.846-1.846,6.071,6.071,0,0,0-6.064-6.064H51.456V76.609H83.408A6.6,6.6,0,0,0,90,70.017V59.431a1.318,1.318,0,1,0-2.637,0V70.017a3.96,3.96,0,0,1-3.955,3.955H6.592a3.96,3.96,0,0,1-3.955-3.955V25.256A3.96,3.96,0,0,1,6.592,21.3H20.419v2.637H7.119a1.848,1.848,0,0,0-1.846,1.846V70.017a1.318,1.318,0,0,0,1.318,1.318H82.881a1.848,1.848,0,0,0,1.846-1.846V25.784a1.848,1.848,0,0,0-1.846-1.846h-13.3V21.3H83.408a3.96,3.96,0,0,1,3.955,3.955V53.279A1.318,1.318,0,0,0,88.682,54.6Zm-47.5,22.012h7.639V82.09H41.181Zm11.941,8.118a3.434,3.434,0,0,1,3.336,2.637H33.543a3.434,3.434,0,0,1,3.336-2.637ZM20.419,68.7H7.91V26.575H20.419Zm46.524,0H23.056V6.592a3.96,3.96,0,0,1,3.955-3.955H62.989a3.96,3.96,0,0,1,3.955,3.955ZM82.09,26.575V68.7H69.581V26.575ZM60.18,47.637H29.82a1.318,1.318,0,1,0,0,2.637H60.18a1.318,1.318,0,0,0,0-2.637ZM45,7.91a16.719,16.719,0,0,0-10.092,3.357,1.318,1.318,0,0,0,1.58,2.111A14.1,14.1,0,0,1,45,10.547a14.247,14.247,0,1,1-12.265,7.013,1.318,1.318,0,1,0-2.269-1.342A16.872,16.872,0,1,0,45,7.91ZM38.926,31.571a4.883,4.883,0,0,0,6.836,0l8.233-8.234a3.955,3.955,0,1,0-5.646-5.54L42.343,23.8l-.745-.745A3.955,3.955,0,1,0,36,28.65Zm-1.056-6.65a1.33,1.33,0,0,1,1.865,0l1.3,1.3a1.861,1.861,0,0,0,2.61,0l6.565-6.565a1.372,1.372,0,0,1,1.87-.1,1.331,1.331,0,0,1,.047,1.91L43.9,29.706a2.2,2.2,0,0,1-3.107,0l-2.921-2.921a1.32,1.32,0,0,1,0-1.864ZM60.18,55.547H29.82a1.318,1.318,0,1,0,0,2.637H60.18a1.318,1.318,0,0,0,0-2.637Z" fill="#003995"/>
    </g>
    <g id="Ellipse_103" data-name="Ellipse 103" transform="translate(-6476 -747)" fill="none" stroke="#0062ff" stroke-width="2">
      <circle cx="6" cy="6" r="6" stroke="none"/>
      <circle cx="6" cy="6" r="5" fill="none"/>
    </g>
    <g id="Ellipse_104" data-name="Ellipse 104" transform="translate(-6347 -710)" fill="none" stroke="#0062ff" stroke-width="1.5">
      <circle cx="4" cy="4" r="4" stroke="none"/>
      <circle cx="4" cy="4" r="3.25" fill="none"/>
    </g>
    <g id="Group_12055" data-name="Group 12055" transform="translate(-6653 -995)">
      <rect id="Rectangle_1743" data-name="Rectangle 1743" width="3" height="14" rx="1.5" transform="translate(292 344)" fill="#0062ff"/>
      <rect id="Rectangle_1744" data-name="Rectangle 1744" width="3" height="14" rx="1.5" transform="translate(286.5 352.5) rotate(-90)" fill="#0062ff"/>
    </g>
    <g id="Group_12056" data-name="Group 12056" transform="translate(-6444.841 -1141.73) rotate(45)">
      <rect id="Rectangle_1743-2" data-name="Rectangle 1743" width="3" height="14" rx="1.5" transform="translate(292 344)" fill="#0062ff"/>
      <rect id="Rectangle_1744-2" data-name="Rectangle 1744" width="3" height="14" rx="1.5" transform="translate(286.5 352.5) rotate(-90)" fill="#0062ff"/>
    </g>
    <g id="notifications_active-24px" transform="translate(-6390 -753)">
      <path id="Path_30872" data-name="Path 30872" d="M0,0H18V18H0Z" fill="none"/>
      <path id="Path_30873" data-name="Path 30873" d="M14.032,12.625V8.875a4.57,4.57,0,0,0-3.375-4.74v-.51A1.13,1.13,0,0,0,9.525,2.5,1.117,1.117,0,0,0,8.407,3.625v.51a4.556,4.556,0,0,0-3.375,4.74v3.75l-.975.968a.75.75,0,0,0,.525,1.282H14.46a.752.752,0,0,0,.532-1.282Zm-4.507,4.5a1.5,1.5,0,0,0,1.5-1.5h-3A1.5,1.5,0,0,0,9.525,17.125ZM5.61,4.173A.739.739,0,0,0,5.632,3.1.75.75,0,0,0,4.59,3.085,7.818,7.818,0,0,0,2.137,7.63a.758.758,0,0,0,.75.87.748.748,0,0,0,.735-.622A6.33,6.33,0,0,1,5.61,4.173Zm8.873-1.088a.759.759,0,0,0-1.05.015.736.736,0,0,0,.023,1.065,6.372,6.372,0,0,1,1.988,3.7.736.736,0,0,0,.735.623.753.753,0,0,0,.743-.87,7.866,7.866,0,0,0-2.438-4.538Z" transform="translate(-0.532 -0.625)" fill="#0062ff"/>
    </g>
    <g id="assignment-black-48dp" transform="translate(-6471 -629)">
      <path id="Path_30870" data-name="Path 30870" d="M0,0H18V18H0Z" fill="none"/>
      <path id="Path_30871" data-name="Path 30871" d="M15,2.5H11.865a2.241,2.241,0,0,0-4.23,0H4.5A1.5,1.5,0,0,0,3,4V14.5A1.5,1.5,0,0,0,4.5,16H15a1.5,1.5,0,0,0,1.5-1.5V4A1.5,1.5,0,0,0,15,2.5Zm-5.25,0A.75.75,0,1,1,9,3.25.752.752,0,0,1,9.75,2.5ZM10.5,13H6.75a.75.75,0,0,1,0-1.5H10.5a.75.75,0,0,1,0,1.5Zm2.25-3h-6a.75.75,0,0,1,0-1.5h6a.75.75,0,0,1,0,1.5Zm0-3h-6a.75.75,0,0,1,0-1.5h6a.75.75,0,0,1,0,1.5Z" transform="translate(-0.75 -0.25)" fill="#0062ff"/>
    </g>
  </g>
</svg>
