<?xml version="1.0" encoding="utf-8"?>
<!-- Generator: Adobe Illustrator 25.2.3, SVG Export Plug-In . SVG Version: 6.00 Build 0)  -->
<svg version="1.1" id="Layer_1" xmlns="http://www.w3.org/2000/svg" xmlns:xlink="http://www.w3.org/1999/xlink" x="0px" y="0px"
	 viewBox="0 0 365 60" style="enable-background:new 0 0 365 60;" xml:space="preserve">
<style type="text/css">
	.st0{fill:#0063FF;}
	.st1{fill:#FFFFFF;}
</style>
<path class="st0" d="M0,12C0,5.4,5.4,0,12,0h341c6.6,0,12,5.4,12,12v36c0,6.6-5.4,12-12,12H12C5.4,60,0,54.6,0,48V12z"/>
<path class="st1" d="M157.1,36.6V23.4h5.8c1.6,0,2.8,0.3,3.5,0.9c0.8,0.6,1.1,1.5,1.1,2.7c0,0.7-0.2,1.3-0.6,1.9
	c-0.4,0.5-1.1,0.9-1.9,1v0c0.9,0.1,1.6,0.5,2.1,1c0.5,0.6,0.7,1.2,0.7,2c0,1.1-0.4,2-1.2,2.7c-0.8,0.6-2,1-3.6,1H157.1z M159.8,28.9
	h2.7c1.5,0,2.2-0.6,2.2-1.7c0-1.1-0.7-1.7-2.2-1.7h-2.7V28.9z M159.8,34.5h3.1c0.7,0,1.3-0.1,1.6-0.4c0.4-0.3,0.6-0.7,0.6-1.3
	c0-0.5-0.2-1-0.6-1.3c-0.4-0.3-0.9-0.5-1.6-0.5h-3.1V34.5z M181.7,36.6h-2.9l-1.1-3.2h-5.1l-1.1,3.2h-2.8l4.8-13.2h3.3L181.7,36.6z
	 M173.3,31.3h3.8l-1.9-5.8L173.3,31.3z M194.2,33c-0.4,1.3-1.1,2.3-2.1,2.9c-1,0.6-2.2,0.9-3.5,0.9c-1.3,0-2.4-0.3-3.4-0.8
	c-0.9-0.5-1.7-1.3-2.2-2.3c-0.5-1-0.8-2.2-0.8-3.6s0.3-2.6,0.8-3.6s1.3-1.8,2.2-2.3c0.9-0.5,2.1-0.8,3.3-0.8c1.3,0,2.5,0.3,3.5,0.9
	c1,0.6,1.6,1.4,2,2.6l-2.5,1.1c-0.2-0.8-0.6-1.4-1-1.7c-0.5-0.3-1.1-0.5-1.8-0.5c-1.1,0-2,0.4-2.6,1.2c-0.6,0.8-1,1.9-1,3.4
	c0,1.5,0.3,2.6,0.9,3.4c0.6,0.8,1.5,1.2,2.7,1.2c0.7,0,1.3-0.2,1.9-0.6c0.5-0.4,0.9-1,1.1-1.8L194.2,33z M199.1,23.4v6.3l5.4-6.3
	h3.2l-4.7,5.4l4.9,7.8h-3.2l-3.7-6l-1.9,2.1v3.9h-2.8V23.4H199.1z"/>
</svg>
