<svg id="Layer_1" data-name="Layer 1" xmlns="http://www.w3.org/2000/svg" viewBox="0 0 52 24"><defs><style>.cls-1{fill:none;stroke:#0063ff;stroke-width:2px;}.cls-2{fill:#0063ff;}</style></defs><path class="cls-1" d="M5,1H47a4,4,0,0,1,4,4V19a4,4,0,0,1-4,4H5a4,4,0,0,1-4-4V5A4,4,0,0,1,5,1Z"/><path class="cls-2" d="M25.19,9V15H23.77l-2.08-3.49-.52-1h0l0,1V15H20.08V9H21.5l2.08,3.48.51,1h0l0-1V9Zm3.87-.09a2.93,2.93,0,0,1,1.52.37,2.37,2.37,0,0,1,1,1A3.48,3.48,0,0,1,31.92,12a3.48,3.48,0,0,1-.36,1.64,2.37,2.37,0,0,1-1,1,2.93,2.93,0,0,1-1.52.37,3,3,0,0,1-1.53-.37,2.58,2.58,0,0,1-1-1A3.61,3.61,0,0,1,26.2,12a3.61,3.61,0,0,1,.34-1.64,2.58,2.58,0,0,1,1-1A3,3,0,0,1,29.06,8.94Zm0,1a1.39,1.39,0,0,0-1.17.53,2.43,2.43,0,0,0-.4,1.51,2.46,2.46,0,0,0,.4,1.52,1.41,1.41,0,0,0,1.17.52,1.36,1.36,0,0,0,1.15-.52A2.39,2.39,0,0,0,30.63,12a2.36,2.36,0,0,0-.42-1.51A1.34,1.34,0,0,0,29.06,10Z"/></svg>