<svg id="Layer_1" data-name="Layer 1" xmlns="http://www.w3.org/2000/svg" viewBox="0 0 145.93 48.64"><defs><style>.cls-1{fill:red;fill-opacity:0.88;}.cls-2{fill:#fff;}</style></defs><path class="cls-1" d="M52.79,75.81h97.29a24.32,24.32,0,0,1,24.32,24.32h0a24.32,24.32,0,0,1-24.32,24.32H52.79a24.32,24.32,0,0,1-24.32-24.32h0A24.32,24.32,0,0,1,52.79,75.81Z" transform="translate(-28.47 -75.81)"/><path class="cls-2" d="M50.84,106.44V93.82h5.53a5.25,5.25,0,0,1,3.38.9,3.1,3.1,0,0,1,1.09,2.54,2.73,2.73,0,0,1-2.41,2.79v0a3.2,3.2,0,0,1,2,1,2.78,2.78,0,0,1,.7,1.91A3,3,0,0,1,60,105.52a5.47,5.47,0,0,1-3.42.92Zm2.57-7.32H56c1.39,0,2.09-.54,2.09-1.63s-.7-1.62-2.09-1.62H53.41Zm0,5.33h2.92A2.47,2.47,0,0,0,57.9,104a1.53,1.53,0,0,0,.53-1.24,1.46,1.46,0,0,0-.53-1.21,2.41,2.41,0,0,0-1.57-.44H53.41ZM73.8,93.82v7.65a5.09,5.09,0,0,1-1.38,3.88,5.7,5.7,0,0,1-4,1.28,5.72,5.72,0,0,1-4-1.28A5.12,5.12,0,0,1,63,101.47V93.82h2.64v7.53a3.53,3.53,0,0,0,.66,2.35,2.68,2.68,0,0,0,2.09.77,2.58,2.58,0,0,0,2.06-.77,3.47,3.47,0,0,0,.67-2.35V93.82Zm12.74,0-4.47,7.9v4.72H79.44v-4.72L75,93.82h2.81l2,3.77,1,2,1-2,2-3.77Zm17,0v12.62h-3L96.13,99,95.05,97h0l.07,2.18v7.3H92.73V93.82h3l4.42,7.4,1.09,2.08h0l-.08-2.18v-7.3Zm8.32-.19a6.29,6.29,0,0,1,3.23.79,5.16,5.16,0,0,1,2.08,2.23,8.45,8.45,0,0,1,0,7,5.16,5.16,0,0,1-2.08,2.23,6.29,6.29,0,0,1-3.23.79,6.39,6.39,0,0,1-3.25-.79,5.33,5.33,0,0,1-2.1-2.23,8.66,8.66,0,0,1,0-7,5.33,5.33,0,0,1,2.1-2.23A6.39,6.39,0,0,1,111.89,93.63Zm0,2.16a3,3,0,0,0-2.49,1.13,5.18,5.18,0,0,0-.86,3.21,5.26,5.26,0,0,0,.86,3.23,3,3,0,0,0,2.49,1.11,2.93,2.93,0,0,0,2.45-1.11,5.2,5.2,0,0,0,.87-3.23,5.11,5.11,0,0,0-.87-3.21A2.91,2.91,0,0,0,111.89,95.79Zm10.45,10.65-3.67-12.62h2.81L124,104.24l2.52-10.42H129l2.56,10.42L134,93.82h2.7l-3.67,12.62h-3l-1.75-6.88-.6-3h0l-.6,3-1.74,6.88Zm20.42-11.11L152,99.54V102l-9.27,4.23v-2.52l7.23-2.89-7.23-2.9Z" transform="translate(-28.47 -75.81)"/></svg>