<svg id="Layer_1" data-name="Layer 1" xmlns="http://www.w3.org/2000/svg" viewBox="0 0 256 87.95"><defs><style>.cls-1{fill:#0062ff;}.cls-2{fill:#fff;}</style></defs><path class="cls-1" d="M212,84H44a44,44,0,0,0,0,88H212a44,44,0,0,0,0-88Z" transform="translate(0 -84.02)"/><path class="cls-2" d="M103.66,119.62v16.76H82.72V119.62Zm2.09-4.18H80.62a2.08,2.08,0,0,0-2.09,2.09v20.94a2.08,2.08,0,0,0,2.09,2.09h25.13a2.08,2.08,0,0,0,2.09-2.09v-7.33l8.38,8.38v-23l-8.37,8.38v-7.33a2.14,2.14,0,0,0-.62-1.48,2.09,2.09,0,0,0-1.48-.61Z" transform="translate(0 -84.02)"/><path class="cls-2" d="M152.67,131.85a5.58,5.58,0,0,1-2.31,3.19,7.08,7.08,0,0,1-3.85,1,7.45,7.45,0,0,1-3.74-.9,6.13,6.13,0,0,1-2.42-2.57,9,9,0,0,1-.83-4,8.53,8.53,0,0,1,.86-4,6.08,6.08,0,0,1,2.41-2.58,8,8,0,0,1,7.48,0,4.75,4.75,0,0,1,2.2,2.81l-2.75,1.17a3.3,3.3,0,0,0-1.14-1.87,3.27,3.27,0,0,0-2-.57,3.57,3.57,0,0,0-2.88,1.29,5.63,5.63,0,0,0-1.06,3.7,5.91,5.91,0,0,0,1,3.69,3.49,3.49,0,0,0,2.93,1.3,3.29,3.29,0,0,0,2-.64,3.32,3.32,0,0,0,1.23-1.93Zm8.16-3a1.92,1.92,0,0,0-.55-1.47,1.86,1.86,0,0,0-1.4-.53,2.48,2.48,0,0,0-1.43.42,2.4,2.4,0,0,0-.9,1.38l-2.58-.79a4,4,0,0,1,1.63-2.33,5.89,5.89,0,0,1,3.41-.88,5.45,5.45,0,0,1,3.47,1,3.56,3.56,0,0,1,1.34,3v4.46c0,.56.27.84.8.84a2.28,2.28,0,0,0,.7-.11l-.18,1.86a3,3,0,0,1-1.43.29,3.19,3.19,0,0,1-1.64-.4,1.94,1.94,0,0,1-.93-1.18,3.31,3.31,0,0,1-1.52,1.21,5.28,5.28,0,0,1-2,.39,4.37,4.37,0,0,1-2.66-.74,2.7,2.7,0,0,1-1-2.23,2.67,2.67,0,0,1,.79-2,4.31,4.31,0,0,1,2.26-1.07l3.78-.77Zm-3.82,4a1,1,0,0,0,.39.83,1.72,1.72,0,0,0,1,.29,3.54,3.54,0,0,0,1.19-.2,1.86,1.86,0,0,0,.9-.66,2.08,2.08,0,0,0,.35-1.27v-.68l-2.3.46a3.45,3.45,0,0,0-1.15.41A.91.91,0,0,0,157,132.82ZM169.78,120v12.43a1.62,1.62,0,0,0,.27,1.07,1.08,1.08,0,0,0,.88.31,3.44,3.44,0,0,0,.61,0,3.89,3.89,0,0,0,.62-.18l-.26,2a2.86,2.86,0,0,1-1,.33,4.59,4.59,0,0,1-1.1.13,3.12,3.12,0,0,1-2.35-.77,3.57,3.57,0,0,1-.73-2.5V120Zm6.65,0v12.43a1.69,1.69,0,0,0,.26,1.07,1.1,1.1,0,0,0,.88.31,3.57,3.57,0,0,0,.62,0,4.15,4.15,0,0,0,.61-.18l-.26,2a2.78,2.78,0,0,1-.95.33,4.51,4.51,0,0,1-1.09.13,3.15,3.15,0,0,1-2.36-.77,3.62,3.62,0,0,1-.72-2.5V120Z" transform="translate(0 -84.02)"/></svg>