<svg xmlns="http://www.w3.org/2000/svg" xmlns:xlink="http://www.w3.org/1999/xlink" width="187.052" height="177" viewBox="0 0 187.052 177">
  <defs>
    <filter id="Ellipse_93" x="17.955" y="21" width="156" height="156" filterUnits="userSpaceOnUse">
      <feOffset dy="3" input="SourceAlpha"/>
      <feGaussianBlur stdDeviation="3" result="blur"/>
      <feFlood flood-opacity="0.161"/>
      <feComposite operator="in" in2="blur"/>
      <feComposite in="SourceGraphic"/>
    </filter>
    <clipPath id="clip-path">
      <circle id="Ellipse_94" data-name="Ellipse 94" cx="69" cy="69" r="69" transform="translate(-3395 3347)" fill="#fff" stroke="#707070" stroke-width="1"/>
    </clipPath>
  </defs>
  <g id="Group_12068" data-name="Group 12068" transform="translate(-111.045 -223)">
    <g id="_050-mail" data-name="050-mail" transform="translate(157 260.344)">
      <path id="Path_36848" data-name="Path 36848" d="M105.266,50.254V104.4a8.3,8.3,0,0,1-8.3,8.3H17.3A8.3,8.3,0,0,1,9,104.4V50.188a9.958,9.958,0,0,1,5.608-8.956L52.776,22.7a9.961,9.961,0,0,1,8.712,0L99.668,41.3A9.956,9.956,0,0,1,105.266,50.254Z" transform="translate(-7.133 -7.164)" fill="#a2d0ff"/>
      <path id="Path_36849" data-name="Path 36849" d="M105.266,184.679v48.894a8.3,8.3,0,0,1-8.3,8.3H17.3a8.3,8.3,0,0,1-8.3-8.3V184.679L52.782,205.94a9.959,9.959,0,0,0,8.7,0Z" transform="translate(-7.133 -136.334)" fill="#d1e7ff"/>
      <path id="Path_36850" data-name="Path 36850" d="M97.577,48.954c-22.595-2.1-45.1,2.761-64.524,16a4.012,4.012,0,0,1-4.011.283L9,55.509V50.188a9.958,9.958,0,0,1,5.608-8.956L52.776,22.7a9.961,9.961,0,0,1,8.712,0L99.668,41.3A4.028,4.028,0,0,1,97.577,48.954Z" transform="translate(-7.133 -7.164)" fill="#b9dcff"/>
      <path id="Path_36851" data-name="Path 36851" d="M76.056,274.789l36.066,36.066a8.273,8.273,0,0,1-5.867,2.432H26.587a8.273,8.273,0,0,1-5.867-2.432l36.066-36.066,5.284,2.566a9.959,9.959,0,0,0,8.7,0Z" transform="translate(-16.421 -207.749)" fill="#b9dcff"/>
      <path id="Path_36852" data-name="Path 36852" d="M93.354,32.46l-38.181-18.6a11.754,11.754,0,0,0-10.345-.006L6.66,32.387A11.9,11.9,0,0,0,0,43.025V97.239A10.177,10.177,0,0,0,10.166,107.4H89.834A10.177,10.177,0,0,0,100,97.239V43.091A11.9,11.9,0,0,0,93.354,32.46Zm2.912,64.779a6.439,6.439,0,0,1-6.432,6.432H10.166a6.439,6.439,0,0,1-6.432-6.432V51.328l41.1,19.959a11.757,11.757,0,0,0,10.332,0l29.878-14.51a1.867,1.867,0,0,0-1.631-3.359L53.535,67.928a8.044,8.044,0,0,1-7.069,0L3.734,47.176V43.025a8.139,8.139,0,0,1,4.557-7.278L46.458,17.211a8.044,8.044,0,0,1,7.078,0l38.181,18.6a8.141,8.141,0,0,1,4.548,7.274ZM31.818,75.586a1.867,1.867,0,0,1,0,2.641L13.613,96.432a1.867,1.867,0,0,1-2.641-2.641L29.178,75.586a1.867,1.867,0,0,1,2.641,0Zm57.21,18.205a1.867,1.867,0,0,1-2.641,2.641L68.182,78.227a1.867,1.867,0,0,1,2.641-2.641Z" transform="translate(0 0)" fill="#0062ff"/>
    </g>
    <g id="Group_12044" data-name="Group 12044" transform="translate(3811 -3097)">
      <g transform="matrix(1, 0, 0, 1, -3699.96, 3320)" filter="url(#Ellipse_93)">
        <circle id="Ellipse_93-2" data-name="Ellipse 93" cx="69" cy="69" r="69" transform="translate(26.96 27)" fill="#fff"/>
      </g>
      <g id="Mask_Group_6" data-name="Mask Group 6" transform="translate(-278)" clip-path="url(#clip-path)">
        <g id="Rectangle_1766" data-name="Rectangle 1766" transform="translate(-3362 3387)" fill="#fff" stroke="#0062ff" stroke-width="3">
          <rect width="71" height="105" rx="14" stroke="none"/>
          <rect x="1.5" y="1.5" width="68" height="102" rx="12.5" fill="none"/>
        </g>
      </g>
      <g id="Group_12043" data-name="Group 12043">
        <g id="Ellipse_96" data-name="Ellipse 96" transform="translate(-3610.891 3421.322) rotate(100)" fill="none" stroke="#0062ff" stroke-width="3" stroke-dasharray="21">
          <circle cx="7" cy="7" r="7" stroke="none"/>
          <circle cx="7" cy="7" r="5.5" fill="none"/>
        </g>
        <g id="Ellipse_97" data-name="Ellipse 97" transform="translate(-3580.891 3421.322) rotate(100)" fill="none" stroke="#0062ff" stroke-width="3" stroke-dasharray="21">
          <circle cx="7" cy="7" r="7" stroke="none"/>
          <circle cx="7" cy="7" r="5.5" fill="none"/>
        </g>
        <g id="Ellipse_98" data-name="Ellipse 98" transform="translate(-3615.585 3459.111) rotate(-80)" fill="none" stroke="#0062ff" stroke-width="3" stroke-dasharray="30">
          <ellipse cx="10" cy="10" rx="10" ry="10" stroke="none"/>
          <ellipse cx="10" cy="10" rx="8.5" ry="8.5" fill="none"/>
        </g>
      </g>
    </g>
    <g id="Group_12000" data-name="Group 12000" transform="translate(0 -4)">
      <path id="XMLID_1489_" d="M448,167.735a6.25,6.25,0,1,0,6.25-6.25A6.257,6.257,0,0,0,448,167.735Zm6.25-2.344a2.344,2.344,0,1,1-2.344,2.344A2.346,2.346,0,0,1,454.252,165.391Z" transform="translate(-308.502 217.055)" fill="#0062ff"/>
      <path id="XMLID_1502_" d="M289.36,118.354a6.25,6.25,0,1,0-6.25-6.25A6.257,6.257,0,0,0,289.36,118.354Zm0-8.594a2.344,2.344,0,1,1-2.344,2.344A2.346,2.346,0,0,1,289.36,109.76Z" transform="translate(-163.815 158.821)" fill="#0062ff"/>
      <path id="XMLID_1502_2" data-name="XMLID_1502_" d="M289.36,118.354a6.25,6.25,0,1,0-6.25-6.25A6.257,6.257,0,0,0,289.36,118.354Zm0-8.594a2.344,2.344,0,1,1-2.344,2.344A2.346,2.346,0,0,1,289.36,109.76Z" transform="translate(-36.815 135.821)" fill="#0062ff"/>
      <path id="XMLID_1502_3" data-name="XMLID_1502_" d="M289.36,118.354a6.25,6.25,0,1,0-6.25-6.25A6.257,6.257,0,0,0,289.36,118.354Zm0-8.594a2.344,2.344,0,1,1-2.344,2.344A2.346,2.346,0,0,1,289.36,109.76Z" transform="translate(-12.815 269.821)" fill="#0062ff"/>
      <g id="Group_11997" data-name="Group 11997" transform="translate(46 74)">
        <path id="XMLID_1715_" d="M484.527,5.748a1.947,1.947,0,0,0,1.381-.572l1.841-1.841A1.953,1.953,0,0,0,484.987.572l-1.841,1.841a1.953,1.953,0,0,0,1.381,3.334Z" transform="translate(-352.321 153)" fill="#0062ff"/>
        <path id="XMLID_1747_" d="M437.386,52.887a1.947,1.947,0,0,0,1.381-.572l1.841-1.841a1.953,1.953,0,1,0-2.762-2.762L436,49.553a1.953,1.953,0,0,0,1.381,3.334Z" transform="translate(-314.387 115.068)" fill="#0062ff"/>
        <path id="XMLID_1750_" d="M485.908,47.712a1.953,1.953,0,0,0-2.762,2.762l1.841,1.841a1.953,1.953,0,1,0,2.762-2.762Z" transform="translate(-352.321 115.067)" fill="#0062ff"/>
        <path id="XMLID_1751_" d="M437.846,5.176a1.953,1.953,0,1,0,2.762-2.762L438.767.572A1.953,1.953,0,0,0,436,3.334Z" transform="translate(-314.387 153)" fill="#0062ff"/>
      </g>
      <g id="Group_11999" data-name="Group 11999" transform="translate(310.118 77.124) rotate(45)">
        <path id="XMLID_1715_2" data-name="XMLID_1715_" d="M484.527,5.748a1.947,1.947,0,0,0,1.381-.572l1.841-1.841A1.953,1.953,0,0,0,484.987.572l-1.841,1.841a1.953,1.953,0,0,0,1.381,3.334Z" transform="translate(-352.321 153)" fill="#0062ff"/>
        <path id="XMLID_1747_2" data-name="XMLID_1747_" d="M437.386,52.887a1.947,1.947,0,0,0,1.381-.572l1.841-1.841a1.953,1.953,0,1,0-2.762-2.762L436,49.553a1.953,1.953,0,0,0,1.381,3.334Z" transform="translate(-314.387 115.068)" fill="#0062ff"/>
        <path id="XMLID_1750_2" data-name="XMLID_1750_" d="M485.908,47.712a1.953,1.953,0,0,0-2.762,2.762l1.841,1.841a1.953,1.953,0,1,0,2.762-2.762Z" transform="translate(-352.321 115.067)" fill="#0062ff"/>
        <path id="XMLID_1751_2" data-name="XMLID_1751_" d="M437.846,5.176a1.953,1.953,0,1,0,2.762-2.762L438.767.572A1.953,1.953,0,0,0,436,3.334Z" transform="translate(-314.387 153)" fill="#0062ff"/>
      </g>
      <g id="Group_11998" data-name="Group 11998" transform="translate(-10 178)">
        <path id="XMLID_1715_3" data-name="XMLID_1715_" d="M484.527,5.748a1.947,1.947,0,0,0,1.381-.572l1.841-1.841A1.953,1.953,0,0,0,484.987.572l-1.841,1.841a1.953,1.953,0,0,0,1.381,3.334Z" transform="translate(-352.321 153)" fill="#0062ff"/>
        <path id="XMLID_1747_3" data-name="XMLID_1747_" d="M437.386,52.887a1.947,1.947,0,0,0,1.381-.572l1.841-1.841a1.953,1.953,0,1,0-2.762-2.762L436,49.553a1.953,1.953,0,0,0,1.381,3.334Z" transform="translate(-314.387 115.068)" fill="#0062ff"/>
        <path id="XMLID_1750_3" data-name="XMLID_1750_" d="M485.908,47.712a1.953,1.953,0,0,0-2.762,2.762l1.841,1.841a1.953,1.953,0,1,0,2.762-2.762Z" transform="translate(-352.321 115.067)" fill="#0062ff"/>
        <path id="XMLID_1751_3" data-name="XMLID_1751_" d="M437.846,5.176a1.953,1.953,0,1,0,2.762-2.762L438.767.572A1.953,1.953,0,0,0,436,3.334Z" transform="translate(-314.387 153)" fill="#0062ff"/>
      </g>
    </g>
  </g>
</svg>
