<svg id="Layer_1" data-name="Layer 1" xmlns="http://www.w3.org/2000/svg" viewBox="0 0 256 90.02">
	<defs>
		<style>
			.cls-1{fill:#fff;}
		</style>
	</defs>
	<path class="cls-1" d="M61.4,104.43C59.45,95.05,51.65,83,32.16,83c-16,0-28.51,12.18-28.51,25.7,0,12.91,8.78,20.95,21.08,23.63L37,135c8.65,1.83,12.91,7.19,12.91,13.4,0,7.56-5.84,13.77-17.78,13.77-13,0-19.86-8.89-20.71-18.52L0,147.31C1.58,159.61,11.45,173,32.28,173c18.4,0,29.85-12.18,29.85-25.58,0-12.06-8-21.07-22.42-24.24l-12.91-2.8c-7.31-1.59-11.09-6.34-11.09-12.55,0-8,7-14.37,16.69-14.37,12.06,0,17.3,8.52,18.28,14.73Zm19.73,31.43a15.77,15.77,0,0,1,16-15c10.35,0,15.83,6.58,16.08,15Zm33.74,15.22c-2.19,6.58-6.94,11.82-16.44,11.82-9.87,0-17.42-7.31-17.66-17.78h44.09a26.05,26.05,0,0,0,.25-3.66c0-18.27-10.11-30.7-28.14-30.7-14.74,0-28,12.55-28,30.94C69,161.56,82.71,173,98.43,173c13.64,0,23-8.16,26.31-18.51Zm33.87-13.76c0-8.89,4.63-16.08,13.64-16.08,10.23,0,13.64,6.58,13.64,14.74v35.2h11.46V134c0-13-6.95-23.15-21-23.15-6.82,0-13.76,2.81-18,10.12v-8.41h-11.2v58.59h11.45Zm61.34,4.38c0-12.06,6.82-20.58,17.29-20.58s16.81,8.28,16.81,20.34-6.45,21.2-16.93,21.2C216.29,162.66,210.08,153.76,210.08,141.7Zm34.23,21.57a49.71,49.71,0,0,0,.6,7.91H256a92.81,92.81,0,0,1-.61-10.84V83H244.06v37.88c-1.95-4.75-7.55-9.86-17.91-9.86-16.56,0-27.77,14.13-27.77,30.69,0,17.42,10.6,31.07,27.77,31.07,9.14,0,15.35-4.88,18.16-10.48Z" transform="translate(0 -82.99)" />
</svg>
