<svg id="Layer_1" data-name="Layer 1" xmlns="http://www.w3.org/2000/svg" viewBox="0 0 232 256.75"><defs><style>.cls-1{fill:#020202;fill-rule:evenodd;}</style></defs><path class="cls-1" d="M205.33,181.1A37.53,37.53,0,0,0,180.07,191l-91.9-53.49a41.89,41.89,0,0,0,1.16-9,41.91,41.91,0,0,0-1.16-9l90.87-53a38.58,38.58,0,1,0-12.37-28.23,41.91,41.91,0,0,0,1.16,9L77,100.29a38.67,38.67,0,1,0,0,56.45l91.77,53.62a36.07,36.07,0,0,0-1,8.38,37.64,37.64,0,1,0,37.63-37.64Z" transform="translate(-12 0.37)"/></svg>