<svg xmlns="http://www.w3.org/2000/svg" width="24" height="26" viewBox="0 0 24 26">
  <g id="clothes" transform="translate(-25.999)">
    <g id="Group_11828" data-name="Group 11828" transform="translate(25.999 0)">
      <path id="Path_30781" data-name="Path 30781" d="M49.952,10.25,46.663,3.243a2.655,2.655,0,0,0-1.408-1.411L41.625.054a.535.535,0,0,0-.369-.037,10.977,10.977,0,0,1-6.512,0,.534.534,0,0,0-.369.037L30.743,1.831a2.655,2.655,0,0,0-1.408,1.411L26.046,10.25a.5.5,0,0,0,.2.642l3.929,2.39V25.492A.515.515,0,0,0,30.7,26H45.3a.515.515,0,0,0,.522-.508V13.281l3.929-2.39A.5.5,0,0,0,49.952,10.25ZM40.775,1.181a2.98,2.98,0,0,1-5.551,0A11.337,11.337,0,0,0,40.775,1.181Zm5.051,10.9V8.937a.522.522,0,0,0-1.043,0V24.984H31.217V8.937a.522.522,0,0,0-1.043,0v3.146l-2.987-1.817,3.1-6.6a1.65,1.65,0,0,1,.927-.926l1.063-.52a5.8,5.8,0,0,0,3.217,3.3.532.532,0,0,0,.207.042.523.523,0,0,0,.479-.306.5.5,0,0,0-.271-.668,4.752,4.752,0,0,1-2.691-2.828l.96-.47a4.01,4.01,0,0,0,7.648,0l.96.47a4.752,4.752,0,0,1-2.692,2.828.5.5,0,0,0-.271.668.523.523,0,0,0,.479.306.532.532,0,0,0,.207-.042,5.8,5.8,0,0,0,3.217-3.3l1.063.52a1.65,1.65,0,0,1,.927.926l3.1,6.6Z" transform="translate(-25.999 0)"/>
      <path id="Path_30782" data-name="Path 30782" d="M246.519,98.561h0a.508.508,0,1,0,.522.508A.515.515,0,0,0,246.519,98.561Z" transform="translate(-234.519 -93.556)"/>
    </g>
  </g>
</svg>
