<svg xmlns="http://www.w3.org/2000/svg" width="24" height="24" viewBox="0 0 24 24">
  <g id="cosmetics" transform="translate(-4.75 -4.75)">
    <path id="Path_30795" data-name="Path 30795" d="M11.1,55.439a.355.355,0,0,0-.354.354v1.57a.354.354,0,0,0,.709,0v-1.57A.355.355,0,0,0,11.1,55.439Z" transform="translate(-4.785 -40.423)"/>
    <path id="Path_30796" data-name="Path 30796" d="M21.105,62.1A3.392,3.392,0,1,0,24.5,65.492,3.392,3.392,0,0,0,21.105,62.1Zm0,6.076a2.684,2.684,0,1,1,2.684-2.684A2.684,2.684,0,0,1,21.105,68.176Z" transform="translate(-10.338 -45.735)"/>
    <path id="Path_30797" data-name="Path 30797" d="M27.18,21.763H22.433l.038-.366v0l.486-4.719a.02.02,0,0,1,0,0l.4-3.833A.355.355,0,0,0,23,12.446H16.558a2.775,2.775,0,0,0-2.025-1.631V9a.355.355,0,0,0-.355-.354H11.729V7.143h2.009a.354.354,0,0,0,.354-.354,1.7,1.7,0,0,0-1.525-1.7L9.393,4.752A.354.354,0,0,0,9,5.1V6.788a.355.355,0,0,0,.354.354h.45V8.649H7.359A.355.355,0,0,0,7,9v1.813A2.789,2.789,0,0,0,4.75,13.548V27.18a1.571,1.571,0,0,0,1.57,1.57h8.9a1.561,1.561,0,0,0,.873-.266.353.353,0,0,0,.342.266H28.4a.355.355,0,0,0,.354-.354V23.332a1.571,1.571,0,0,0-1.57-1.57Zm.861,1.57v.051h-7.19v-.051a.862.862,0,0,1,.861-.861H27.18A.862.862,0,0,1,28.041,23.332Zm-6.329-1.57a1.571,1.571,0,0,0-1.57,1.57v2.062H16.752l-.38-3.684h5.354l-.005.053Zm-5.827-4.772h6.327L21.8,21H16.3l-.062-.6Zm6.4-.709H15.811l-.323-3.127h7.119ZM9.71,5.5l2.783.3a1,1,0,0,1,.827.638H9.709Zm.8,1.644h.506V8.649h-.506Zm3.309,2.215v1.406H7.713V9.358Zm1.393,18.684H6.32a.862.862,0,0,1-.861-.861V13.548a2.078,2.078,0,0,1,2.076-2.076H14a2.07,2.07,0,0,1,1.76.974H15.1a.354.354,0,0,0-.353.391l.8,7.786.079.77v0l.452,4.372V27.18A.862.862,0,0,1,15.217,28.041Zm1.57-.861V26.1h3.356v1.938H16.786Zm11.255.861h-7.19V24.092h7.19Z"/>
    <path id="Path_30798" data-name="Path 30798" d="M97.082,102.583a1.528,1.528,0,1,0,1.249,1.5A1.4,1.4,0,0,0,97.082,102.583Zm0,2.3c-.293,0-.54-.363-.54-.793s.247-.793.54-.793.54.363.54.793S97.375,104.878,97.082,104.878Z" transform="translate(-72.636 -78.019)"/>
  </g>
</svg>
