<svg id="local_cafe-24px" xmlns="http://www.w3.org/2000/svg" width="32" height="32" viewBox="0 0 32 32">
  <path id="Path_30938" data-name="Path 30938" d="M0,0H32V32H0Z" fill="none"/>
  <path id="Path_30939" data-name="Path 30939" d="M20.667,5.667V16.333A2.675,2.675,0,0,1,18,19H10a2.675,2.675,0,0,1-2.667-2.667V5.667H20.667M26,3H4.667V16.333A5.332,5.332,0,0,0,10,21.667h8a5.332,5.332,0,0,0,5.333-5.333v-4H26a2.657,2.657,0,0,0,2.667-2.667v-4A2.657,2.657,0,0,0,26,3ZM23.333,9.667v-4H26v4ZM26,24.333H2V27H26Z" transform="translate(0.667 1)"/>
</svg>
