<svg xmlns="http://www.w3.org/2000/svg" width="15.748" height="18" viewBox="0 0 15.748 18">
  <g id="deodorant" transform="translate(-18.582)">
    <path id="Path_30965" data-name="Path 30965" d="M91.95,148.842a2.165,2.165,0,0,0-1.55.657,2.165,2.165,0,0,0-1.55-.657,2.229,2.229,0,0,0-2.2,2.253,4.326,4.326,0,0,0,1.763,2.889,14.228,14.228,0,0,0,1.633,1.268.648.648,0,0,0,.7,0,14.218,14.218,0,0,0,1.633-1.268,4.326,4.326,0,0,0,1.763-2.889A2.229,2.229,0,0,0,91.95,148.842Zm-1.55,5.083c-1.116-.792-2.452-2.049-2.452-2.83a.9.9,0,1,1,1.8,0,.648.648,0,0,0,1.3,0,.9.9,0,1,1,1.8,0C92.852,151.873,91.516,153.132,90.4,153.925Z" transform="translate(-63.944 -139.821)" fill="#666"/>
    <path id="Path_30966" data-name="Path 30966" d="M27.1,5.032V4.5h.956a.648.648,0,0,0,.648-.648V.648A.648.648,0,0,0,28.06,0H24.852A.648.648,0,0,0,24.2.648V3.856a.648.648,0,0,0,.648.648h.956v.528a7.891,7.891,0,0,0-5.554,12.72.648.648,0,0,0,.51.249H32.147a.648.648,0,0,0,.51-.249A7.891,7.891,0,0,0,27.1,5.032Zm-1.6-2.18h.373a.648.648,0,1,0,0-1.3H25.5V1.3h1.912V3.208H25.5V2.851ZM31.822,16.7H21.089a6.578,6.578,0,1,1,10.733,0Z" fill="#666"/>
  </g>
</svg>
