<svg id="portrait-black-48dp" xmlns="http://www.w3.org/2000/svg" width="32" height="32" viewBox="0 0 32 32">
  <path id="Path_30822" data-name="Path 30822" d="M0,0H32V32H0Z" fill="none"/>
  <path id="Path_30823" data-name="Path 30823" d="M15,15.333a3,3,0,1,0-3-3A3,3,0,0,0,15,15.333Zm6,5.333c0-2-4-3-6-3s-6,1-6,3v1H21ZM24.333,3H5.667A2.675,2.675,0,0,0,3,5.667V24.333A2.675,2.675,0,0,0,5.667,27H24.333A2.675,2.675,0,0,0,27,24.333V5.667A2.675,2.675,0,0,0,24.333,3ZM23,24.333H7A1.337,1.337,0,0,1,5.667,23V7A1.337,1.337,0,0,1,7,5.667H23A1.337,1.337,0,0,1,24.333,7V23A1.337,1.337,0,0,1,23,24.333Z" transform="translate(1 1)"/>
</svg>
