<svg id="star-black-48dp" xmlns="http://www.w3.org/2000/svg" width="24" height="24" viewBox="0 0 24 24">
  <g id="Group_11865" data-name="Group 11865">
    <path id="Path_30810" data-name="Path 30810" d="M0,0H24V24H0Z" fill="none"/>
    <path id="Path_30811" data-name="Path 30811" d="M0,0H24V24H0Z" fill="none"/>
  </g>
  <g id="Group_11866" data-name="Group 11866">
    <path id="Path_30812" data-name="Path 30812" d="M12,17.27l4.15,2.51a1,1,0,0,0,1.49-1.08l-1.1-4.72,3.67-3.18a1,1,0,0,0-.57-1.75l-4.83-.41L12.92,4.18a1,1,0,0,0-1.84,0L9.19,8.63l-4.83.41a1,1,0,0,0-.57,1.75l3.67,3.18-1.1,4.72a1,1,0,0,0,1.49,1.08Z" fill="#0062ff"/>
  </g>
</svg>
